<svg xmlns="http://www.w3.org/2000/svg" xmlns:xlink="http://www.w3.org/1999/xlink" width="950" height="434.2"><rect width="950" height="434.2" rx="0" ry="0" class="a"/><svg height="434.2" viewBox="0 0 95 43.42" width="950" xmlns="http://www.w3.org/2000/svg" xmlns:xlink="http://www.w3.org/1999/xlink"><style>@keyframes n{0%{transform:translateX(0)}.37%{transform:translateX(-190px)}.42%{transform:translateX(-380px)}5.06%{transform:translateX(-475px)}5.6%{transform:translateX(-570px)}6.36%{transform:translateX(-665px)}7.17%{transform:translateX(-760px)}8.99%{transform:translateX(-855px)}9.28%{transform:translateX(-950px)}9.69%{transform:translateX(-1045px)}10.14%{transform:translateX(-1140px)}10.58%{transform:translateX(-1235px)}11.61%{transform:translateX(-1330px)}13.96%{transform:translateX(-1425px)}14.89%{transform:translateX(-1520px)}15.7%{transform:translateX(-1615px)}16.1%{transform:translateX(-1710px)}16.75%{transform:translateX(-1805px)}17.59%{transform:translateX(-1900px)}17.89%{transform:translateX(-1995px)}18.67%{transform:translateX(-2090px)}19.23%{transform:translateX(-2185px)}19.73%{transform:translateX(-2280px)}20.4%{transform:translateX(-2375px)}21.1%{transform:translateX(-2470px)}24.23%{transform:translateX(-2755px)}24.25%{transform:translateX(-2945px)}24.26%{transform:translateX(-3040px)}24.27%{transform:translateX(-3230px)}24.36%{transform:translateX(-3420px)}34.42%{transform:translateX(-3515px)}34.63%{transform:translateX(-3610px)}36.46%{transform:translateX(-3705px)}36.82%{transform:translateX(-3800px)}39.04%{transform:translateX(-3895px)}40.07%{transform:translateX(-3990px)}40.55%{transform:translateX(-4085px)}41.93%{transform:translateX(-4180px)}45.97%{transform:translateX(-4275px)}46.25%{transform:translateX(-4370px)}46.7%{transform:translateX(-4465px)}47.16%{transform:translateX(-4560px)}47.52%{transform:translateX(-4655px)}48.21%{transform:translateX(-4750px)}49.32%{transform:translateX(-4845px)}50.29%{transform:translateX(-4940px)}50.98%{transform:translateX(-5035px)}51.29%{transform:translateX(-5130px)}51.85%{transform:translateX(-5225px)}52.72%{transform:translateX(-5320px)}53.21%{transform:translateX(-5415px)}57.12%{transform:translateX(-5700px)}57.19%{transform:translateX(-5795px)}72.58%{transform:translateX(-5985px)}73.93%{transform:translateX(-6080px)}92.01%{transform:translateX(-6365px)}92.03%{transform:translateX(-6555px)}92.22%{transform:translateX(-6840px)}to{transform:translateX(-6935px)}}.a{fill:#282d35}.c,.d,.e,.f{fill:#a8cc8c;font-weight:700;white-space:pre}.d,.e,.f{fill:#66c2cd}.e,.f{fill:#71bef2}.f{fill:#e88388}.g,.h,.i,.j,.k,.p{fill:#b9c0cb;white-space:pre}.h,.i,.j,.k,.p{fill:#dbab79}.i,.j,.k,.p{fill:#a8cc8c}.j,.k,.p{fill:#66c2cd}.k,.p{fill:#e88388}.p{fill:#b9c0cb;font-weight:700}</style><g font-family="Monaco,Consolas,Menlo,'Bitstream Vera Sans Mono','Powerline Symbols',monospace" font-size="1.67"><defs><symbol id="1"><text y="1.67" class="c">➜</text><text x="3.006" y="1.67" class="d">webserv</text><text x="11.022" y="1.67" class="e">git:(</text><text x="16.032" y="1.67" class="f">main</text><text x="20.04" y="1.67" class="e">)</text></symbol><symbol id="2"><text y="1.67" class="c">➜</text><text x="3.006" y="1.67" class="d">webserv</text><text x="11.022" y="1.67" class="e">git:(</text><text x="16.032" y="1.67" class="f">main</text><text x="20.04" y="1.67" class="e">)</text><text x="22.044" y="1.67" class="g">cat</text></symbol><symbol id="3"><text y="1.67" class="c">➜</text><text x="3.006" y="1.67" class="d">webserv</text><text x="11.022" y="1.67" class="e">git:(</text><text x="16.032" y="1.67" class="f">main</text><text x="20.04" y="1.67" class="e">)</text><text x="22.044" y="1.67" class="g">cat</text><text x="26.052" y="1.67" class="g">config/example.toml</text></symbol><symbol id="4"><text y="1.67" class="g">[[server]]</text></symbol><symbol id="5"><text x="8.016" y="1.67" class="g">host</text><text x="13.026" y="1.67" class="g">=</text><text x="15.03" y="1.67" class="g">&quot;127.0.0.1&quot;</text></symbol><symbol id="6"><text x="8.016" y="1.67" class="g">port</text><text x="13.026" y="1.67" class="g">=</text><text x="15.03" y="1.67" class="g">8080</text></symbol><symbol id="7"><text x="8.016" y="1.67" class="g">[[server.location]]</text></symbol><symbol id="8"><text x="16.032" y="1.67" class="g">location</text><text x="25.05" y="1.67" class="g">=</text><text x="27.054" y="1.67" class="g">&quot;/&quot;</text></symbol><symbol id="9"><text x="16.032" y="1.67" class="g">root</text><text x="21.042" y="1.67" class="g">=</text><text x="23.046" y="1.67" class="g">&quot;www/def&quot;</text></symbol><symbol id="10"><text x="16.032" y="1.67" class="g">methods</text><text x="24.048" y="1.67" class="g">=</text><text x="26.052" y="1.67" class="g">[&quot;GET&quot;]</text></symbol><symbol id="11"><text x="16.032" y="1.67" class="g">directory_file</text><text x="31.062" y="1.67" class="g">=</text><text x="33.066" y="1.67" class="g">&quot;index.html&quot;</text></symbol><symbol id="12"><text y="1.67" class="c">➜</text><text x="3.006" y="1.67" class="d">webserv</text><text x="11.022" y="1.67" class="e">git:(</text><text x="16.032" y="1.67" class="f">main</text><text x="20.04" y="1.67" class="e">)</text><text x="22.044" y="1.67" class="g">./webserv</text><text x="32.064" y="1.67" class="g">config/example.toml</text></symbol><symbol id="13"><text y="1.67" class="h">[</text><text x="2.004" y="1.67" class="h">14:33:11</text><text x="11.022" y="1.67" class="h">]</text><text x="13.026" y="1.67" class="i">listening</text><text x="23.046" y="1.67" class="i">on</text><text x="26.052" y="1.67" class="i">127.0.0.1:8080</text></symbol><symbol id="14"><text y="1.67" class="h">[</text><text x="2.004" y="1.67" class="h">14:33:15</text><text x="11.022" y="1.67" class="h">]</text><text x="13.026" y="1.67" class="j">[</text><text x="15.03" y="1.67" class="j">request</text><text x="24.048" y="1.67" class="j">]</text><text x="26.052" y="1.67" class="j">:</text><text x="28.056" y="1.67" class="j">[method:</text><text x="37.074" y="1.67" class="j">GET]</text><text x="42.084" y="1.67" class="j">[URI:</text><text x="48.096" y="1.67" class="j">/</text><text x="50.1" y="1.67" class="j">]</text><text x="52.104" y="1.67" class="j">[location:</text><text x="63.126" y="1.67" class="j">/</text><text x="65.13" y="1.67" class="j">]</text></symbol><symbol id="15"><text y="1.67" class="h">[</text><text x="2.004" y="1.67" class="h">14:33:15</text><text x="11.022" y="1.67" class="h">]</text><text x="13.026" y="1.67" class="i">[</text><text x="15.03" y="1.67" class="i">response</text><text x="24.048" y="1.67" class="i">]</text><text x="26.052" y="1.67" class="i">:</text><text x="28.056" y="1.67" class="i">[status:</text><text x="37.074" y="1.67" class="i">200</text><text x="41.082" y="1.67" class="i">OK</text><text x="44.088" y="1.67" class="i">]</text><text x="46.092" y="1.67" class="i">[Content-Length:</text><text x="63.126" y="1.67" class="i">12</text><text x="66.132" y="1.67" class="i">]</text></symbol><symbol id="16"><text y="1.67" class="h">[</text><text x="2.004" y="1.67" class="h">14:33:15</text><text x="11.022" y="1.67" class="h">]</text><text x="13.026" y="1.67" class="j">[</text><text x="15.03" y="1.67" class="j">request</text><text x="24.048" y="1.67" class="j">]</text><text x="26.052" y="1.67" class="j">:</text><text x="28.056" y="1.67" class="j">[method:</text><text x="37.074" y="1.67" class="j">GET]</text><text x="42.084" y="1.67" class="j">[URI:</text><text x="48.096" y="1.67" class="j">/favicon.ico</text><text x="61.122" y="1.67" class="j">]</text><text x="63.126" y="1.67" class="j">[location:</text><text x="74.148" y="1.67" class="j">/</text><text x="76.152" y="1.67" class="j">]</text></symbol><symbol id="17"><text y="1.67" class="h">[</text><text x="2.004" y="1.67" class="h">14:33:15</text><text x="11.022" y="1.67" class="h">]</text><text x="13.026" y="1.67" class="k">[</text><text x="15.03" y="1.67" class="k">response</text><text x="24.048" y="1.67" class="k">]</text><text x="26.052" y="1.67" class="k">:</text><text x="28.056" y="1.67" class="k">[status:</text><text x="37.074" y="1.67" class="k">404</text><text x="41.082" y="1.67" class="k">Not</text><text x="45.09" y="1.67" class="k">Found</text><text x="51.102" y="1.67" class="k">]</text><text x="53.106" y="1.67" class="k">[Content-Length:</text><text x="70.14" y="1.67" class="k">152</text><text x="74.148" y="1.67" class="k">]</text></symbol><symbol id="18"><text y="1.67" class="g">^C</text></symbol><symbol id="19"><text y="1.67" class="h">[</text><text x="2.004" y="1.67" class="h">14:33:20</text><text x="11.022" y="1.67" class="h">]</text><text x="13.026" y="1.67" class="k">SIGINT</text><text x="20.04" y="1.67" class="k">called.</text><text x="28.056" y="1.67" class="k">Server</text><text x="35.07" y="1.67" class="k">shutdown!</text></symbol><symbol id="20"><text y="1.67" class="f">➜</text><text x="3.006" y="1.67" class="d">webserv</text><text x="11.022" y="1.67" class="e">git:(</text><text x="16.032" y="1.67" class="f">main</text><text x="20.04" y="1.67" class="e">)</text></symbol><symbol id="a"><path fill="transparent" d="M0 0h95v21H0z"/></symbol><symbol id="b"><path fill="#6f7683" d="M0 0h1.102v2.171H0z"/></symbol></defs><path class="a" d="M0 0h95v43.42H0z"/><g style="animation-duration:25.451212s;animation-iteration-count:infinite;animation-name:n;animation-timing-function:steps(1,end)"><svg width="7030"><svg><use xlink:href="#a"/><use xlink:href="#b" x="-.004"/></svg><svg x="95"><use xlink:href="#a"/><use xlink:href="#b" x="-.004"/></svg><svg x="190"><use xlink:href="#a"/><use xlink:href="#b" x="-.004"/></svg><svg x="285"><use xlink:href="#a"/><use xlink:href="#b" x="21.996"/><use xlink:href="#1"/></svg><svg x="380"><use xlink:href="#a"/><use xlink:href="#b" x="21.996"/><use xlink:href="#1"/></svg><svg x="475"><use xlink:href="#a"/><use xlink:href="#b" x="22.996"/><text y="1.67" class="c">➜</text><text x="3.006" y="1.67" class="d">webserv</text><text x="11.022" y="1.67" class="e">git:(</text><text x="16.032" y="1.67" class="f">main</text><text x="20.04" y="1.67" class="e">)</text><text x="22.044" y="1.67" class="g">c</text></svg><svg x="570"><use xlink:href="#a"/><use xlink:href="#b" x="23.996"/><text y="1.67" class="c">➜</text><text x="3.006" y="1.67" class="d">webserv</text><text x="11.022" y="1.67" class="e">git:(</text><text x="16.032" y="1.67" class="f">main</text><text x="20.04" y="1.67" class="e">)</text><text x="22.044" y="1.67" class="g">ca</text></svg><svg x="665"><use xlink:href="#a"/><use xlink:href="#b" x="24.996"/><use xlink:href="#2"/></svg><svg x="760"><use xlink:href="#a"/><use xlink:href="#b" x="25.996"/><use xlink:href="#2"/></svg><svg x="855"><use xlink:href="#a"/><use xlink:href="#b" x="26.996"/><text y="1.67" class="c">➜</text><text x="3.006" y="1.67" class="d">webserv</text><text x="11.022" y="1.67" class="e">git:(</text><text x="16.032" y="1.67" class="f">main</text><text x="20.04" y="1.67" class="e">)</text><text x="22.044" y="1.67" class="g">cat</text><text x="26.052" y="1.67" class="g">c</text></svg><svg x="950"><use xlink:href="#a"/><use xlink:href="#b" x="27.996"/><text y="1.67" class="c">➜</text><text x="3.006" y="1.67" class="d">webserv</text><text x="11.022" y="1.67" class="e">git:(</text><text x="16.032" y="1.67" class="f">main</text><text x="20.04" y="1.67" class="e">)</text><text x="22.044" y="1.67" class="g">cat</text><text x="26.052" y="1.67" class="g">co</text></svg><svg x="1045"><use xlink:href="#a"/><use xlink:href="#b" x="28.996"/><text y="1.67" class="c">➜</text><text x="3.006" y="1.67" class="d">webserv</text><text x="11.022" y="1.67" class="e">git:(</text><text x="16.032" y="1.67" class="f">main</text><text x="20.04" y="1.67" class="e">)</text><text x="22.044" y="1.67" class="g">cat</text><text x="26.052" y="1.67" class="g">con</text></svg><svg x="1140"><use xlink:href="#a"/><use xlink:href="#b" x="29.996"/><text y="1.67" class="c">➜</text><text x="3.006" y="1.67" class="d">webserv</text><text x="11.022" y="1.67" class="e">git:(</text><text x="16.032" y="1.67" class="f">main</text><text x="20.04" y="1.67" class="e">)</text><text x="22.044" y="1.67" class="g">cat</text><text x="26.052" y="1.67" class="g">conf</text></svg><svg x="1235"><use xlink:href="#a"/><use xlink:href="#b" x="30.996"/><text y="1.67" class="c">➜</text><text x="3.006" y="1.67" class="d">webserv</text><text x="11.022" y="1.67" class="e">git:(</text><text x="16.032" y="1.67" class="f">main</text><text x="20.04" y="1.67" class="e">)</text><text x="22.044" y="1.67" class="g">cat</text><text x="26.052" y="1.67" class="g">confi</text></svg><svg x="1330"><use xlink:href="#a"/><use xlink:href="#b" x="32.996"/><text y="1.67" class="c">➜</text><text x="3.006" y="1.67" class="d">webserv</text><text x="11.022" y="1.67" class="e">git:(</text><text x="16.032" y="1.67" class="f">main</text><text x="20.04" y="1.67" class="e">)</text><text x="22.044" y="1.67" class="g">cat</text><text x="26.052" y="1.67" class="g">config</text><text x="32.064" y="1.67" class="p">/</text></svg><svg x="1425"><use xlink:href="#a"/><use xlink:href="#b" x="33.996"/><text y="1.67" class="c">➜</text><text x="3.006" y="1.67" class="d">webserv</text><text x="11.022" y="1.67" class="e">git:(</text><text x="16.032" y="1.67" class="f">main</text><text x="20.04" y="1.67" class="e">)</text><text x="22.044" y="1.67" class="g">cat</text><text x="26.052" y="1.67" class="g">config/e</text></svg><svg x="1520"><use xlink:href="#a"/><use xlink:href="#b" x="34.996"/><text y="1.67" class="c">➜</text><text x="3.006" y="1.67" class="d">webserv</text><text x="11.022" y="1.67" class="e">git:(</text><text x="16.032" y="1.67" class="f">main</text><text x="20.04" y="1.67" class="e">)</text><text x="22.044" y="1.67" class="g">cat</text><text x="26.052" y="1.67" class="g">config/ex</text></svg><svg x="1615"><use xlink:href="#a"/><use xlink:href="#b" x="35.996"/><text y="1.67" class="c">➜</text><text x="3.006" y="1.67" class="d">webserv</text><text x="11.022" y="1.67" class="e">git:(</text><text x="16.032" y="1.67" class="f">main</text><text x="20.04" y="1.67" class="e">)</text><text x="22.044" y="1.67" class="g">cat</text><text x="26.052" y="1.67" class="g">config/exa</text></svg><svg x="1710"><use xlink:href="#a"/><use xlink:href="#b" x="36.996"/><text y="1.67" class="c">➜</text><text x="3.006" y="1.67" class="d">webserv</text><text x="11.022" y="1.67" class="e">git:(</text><text x="16.032" y="1.67" class="f">main</text><text x="20.04" y="1.67" class="e">)</text><text x="22.044" y="1.67" class="g">cat</text><text x="26.052" y="1.67" class="g">config/exam</text></svg><svg x="1805"><use xlink:href="#a"/><use xlink:href="#b" x="37.996"/><text y="1.67" class="c">➜</text><text x="3.006" y="1.67" class="d">webserv</text><text x="11.022" y="1.67" class="e">git:(</text><text x="16.032" y="1.67" class="f">main</text><text x="20.04" y="1.67" class="e">)</text><text x="22.044" y="1.67" class="g">cat</text><text x="26.052" y="1.67" class="g">config/examp</text></svg><svg x="1900"><use xlink:href="#a"/><use xlink:href="#b" x="38.996"/><text y="1.67" class="c">➜</text><text x="3.006" y="1.67" class="d">webserv</text><text x="11.022" y="1.67" class="e">git:(</text><text x="16.032" y="1.67" class="f">main</text><text x="20.04" y="1.67" class="e">)</text><text x="22.044" y="1.67" class="g">cat</text><text x="26.052" y="1.67" class="g">config/exampl</text></svg><svg x="1995"><use xlink:href="#a"/><use xlink:href="#b" x="39.996"/><text y="1.67" class="c">➜</text><text x="3.006" y="1.67" class="d">webserv</text><text x="11.022" y="1.67" class="e">git:(</text><text x="16.032" y="1.67" class="f">main</text><text x="20.04" y="1.67" class="e">)</text><text x="22.044" y="1.67" class="g">cat</text><text x="26.052" y="1.67" class="g">config/example</text></svg><svg x="2090"><use xlink:href="#a"/><use xlink:href="#b" x="40.996"/><text y="1.67" class="c">➜</text><text x="3.006" y="1.67" class="d">webserv</text><text x="11.022" y="1.67" class="e">git:(</text><text x="16.032" y="1.67" class="f">main</text><text x="20.04" y="1.67" class="e">)</text><text x="22.044" y="1.67" class="g">cat</text><text x="26.052" y="1.67" class="g">config/example.</text></svg><svg x="2185"><use xlink:href="#a"/><use xlink:href="#b" x="41.996"/><text y="1.67" class="c">➜</text><text x="3.006" y="1.67" class="d">webserv</text><text x="11.022" y="1.67" class="e">git:(</text><text x="16.032" y="1.67" class="f">main</text><text x="20.04" y="1.67" class="e">)</text><text x="22.044" y="1.67" class="g">cat</text><text x="26.052" y="1.67" class="g">config/example.t</text></svg><svg x="2280"><use xlink:href="#a"/><use xlink:href="#b" x="42.996"/><text y="1.67" class="c">➜</text><text x="3.006" y="1.67" class="d">webserv</text><text x="11.022" y="1.67" class="e">git:(</text><text x="16.032" y="1.67" class="f">main</text><text x="20.04" y="1.67" class="e">)</text><text x="22.044" y="1.67" class="g">cat</text><text x="26.052" y="1.67" class="g">config/example.to</text></svg><svg x="2375"><use xlink:href="#a"/><use xlink:href="#b" x="43.996"/><text y="1.67" class="c">➜</text><text x="3.006" y="1.67" class="d">webserv</text><text x="11.022" y="1.67" class="e">git:(</text><text x="16.032" y="1.67" class="f">main</text><text x="20.04" y="1.67" class="e">)</text><text x="22.044" y="1.67" class="g">cat</text><text x="26.052" y="1.67" class="g">config/example.tom</text></svg><svg x="2470"><use xlink:href="#a"/><use xlink:href="#b" x="44.996"/><use xlink:href="#3"/></svg><svg x="2565"><use xlink:href="#a"/><use xlink:href="#b" x="44.996"/><use xlink:href="#3"/></svg><svg x="2660"><use xlink:href="#a"/><use xlink:href="#b" x="-.004" y="2.146"/><use xlink:href="#3"/></svg><svg x="2755"><use xlink:href="#a"/><use xlink:href="#b" x="-.004" y="2.146"/><use xlink:href="#3"/></svg><svg x="2850"><use xlink:href="#a"/><use xlink:href="#b" x="-.004" y="19.514"/><use xlink:href="#3"/><use xlink:href="#4" y="2.171"/><use xlink:href="#5" y="4.342"/><use xlink:href="#6" y="6.513"/><use xlink:href="#7" y="8.684"/><use xlink:href="#8" y="10.855"/><use xlink:href="#9" y="13.026"/><use xlink:href="#10" y="15.197"/><use xlink:href="#11" y="17.368"/></svg><svg x="2945"><use xlink:href="#a"/><use xlink:href="#b" x="-.004" y="19.514"/><use xlink:href="#3"/><use xlink:href="#4" y="2.171"/><use xlink:href="#5" y="4.342"/><use xlink:href="#6" y="6.513"/><use xlink:href="#7" y="8.684"/><use xlink:href="#8" y="10.855"/><use xlink:href="#9" y="13.026"/><use xlink:href="#10" y="15.197"/><use xlink:href="#11" y="17.368"/></svg><svg x="3040"><use xlink:href="#a"/><use xlink:href="#b" x="-.004" y="19.514"/><use xlink:href="#3"/><use xlink:href="#4" y="2.171"/><use xlink:href="#5" y="4.342"/><use xlink:href="#6" y="6.513"/><use xlink:href="#7" y="8.684"/><use xlink:href="#8" y="10.855"/><use xlink:href="#9" y="13.026"/><use xlink:href="#10" y="15.197"/><use xlink:href="#11" y="17.368"/></svg><svg x="3135"><use xlink:href="#a"/><use xlink:href="#b" x="-.004" y="19.514"/><use xlink:href="#3"/><use xlink:href="#4" y="2.171"/><use xlink:href="#5" y="4.342"/><use xlink:href="#6" y="6.513"/><use xlink:href="#7" y="8.684"/><use xlink:href="#8" y="10.855"/><use xlink:href="#9" y="13.026"/><use xlink:href="#10" y="15.197"/><use xlink:href="#11" y="17.368"/></svg><svg x="3230"><use xlink:href="#a"/><use xlink:href="#b" x="-.004" y="19.514"/><use xlink:href="#3"/><use xlink:href="#4" y="2.171"/><use xlink:href="#5" y="4.342"/><use xlink:href="#6" y="6.513"/><use xlink:href="#7" y="8.684"/><use xlink:href="#8" y="10.855"/><use xlink:href="#9" y="13.026"/><use xlink:href="#10" y="15.197"/><use xlink:href="#11" y="17.368"/></svg><svg x="3325"><use xlink:href="#a"/><use xlink:href="#b" x="21.996" y="19.514"/><use xlink:href="#3"/><use xlink:href="#4" y="2.171"/><use xlink:href="#5" y="4.342"/><use xlink:href="#6" y="6.513"/><use xlink:href="#7" y="8.684"/><use xlink:href="#8" y="10.855"/><use xlink:href="#9" y="13.026"/><use xlink:href="#10" y="15.197"/><use xlink:href="#11" y="17.368"/><use xlink:href="#1" y="19.539"/></svg><svg x="3420"><use xlink:href="#a"/><use xlink:href="#b" x="21.996" y="19.514"/><use xlink:href="#3"/><use xlink:href="#4" y="2.171"/><use xlink:href="#5" y="4.342"/><use xlink:href="#6" y="6.513"/><use xlink:href="#7" y="8.684"/><use xlink:href="#8" y="10.855"/><use xlink:href="#9" y="13.026"/><use xlink:href="#10" y="15.197"/><use xlink:href="#11" y="17.368"/><use xlink:href="#1" y="19.539"/></svg><svg x="3515"><use xlink:href="#a"/><use xlink:href="#b" x="22.996" y="19.514"/><use xlink:href="#3"/><use xlink:href="#4" y="2.171"/><use xlink:href="#5" y="4.342"/><use xlink:href="#6" y="6.513"/><use xlink:href="#7" y="8.684"/><use xlink:href="#8" y="10.855"/><use xlink:href="#9" y="13.026"/><use xlink:href="#10" y="15.197"/><use xlink:href="#11" y="17.368"/><text y="21.209" class="c">➜</text><text x="3.006" y="21.209" class="d">webserv</text><text x="11.022" y="21.209" class="e">git:(</text><text x="16.032" y="21.209" class="f">main</text><text x="20.04" y="21.209" class="e">)</text><text x="22.044" y="21.209" class="g">.</text></svg><svg x="3610"><use xlink:href="#a"/><use xlink:href="#b" x="23.996" y="19.514"/><use xlink:href="#3"/><use xlink:href="#4" y="2.171"/><use xlink:href="#5" y="4.342"/><use xlink:href="#6" y="6.513"/><use xlink:href="#7" y="8.684"/><use xlink:href="#8" y="10.855"/><use xlink:href="#9" y="13.026"/><use xlink:href="#10" y="15.197"/><use xlink:href="#11" y="17.368"/><text y="21.209" class="c">➜</text><text x="3.006" y="21.209" class="d">webserv</text><text x="11.022" y="21.209" class="e">git:(</text><text x="16.032" y="21.209" class="f">main</text><text x="20.04" y="21.209" class="e">)</text><text x="22.044" y="21.209" class="g">./</text></svg><svg x="3705"><use xlink:href="#a"/><use xlink:href="#b" x="24.996" y="19.514"/><use xlink:href="#3"/><use xlink:href="#4" y="2.171"/><use xlink:href="#5" y="4.342"/><use xlink:href="#6" y="6.513"/><use xlink:href="#7" y="8.684"/><use xlink:href="#8" y="10.855"/><use xlink:href="#9" y="13.026"/><use xlink:href="#10" y="15.197"/><use xlink:href="#11" y="17.368"/><text y="21.209" class="c">➜</text><text x="3.006" y="21.209" class="d">webserv</text><text x="11.022" y="21.209" class="e">git:(</text><text x="16.032" y="21.209" class="f">main</text><text x="20.04" y="21.209" class="e">)</text><text x="22.044" y="21.209" class="g">./w</text></svg><svg x="3800"><use xlink:href="#a"/><use xlink:href="#b" x="25.996" y="19.514"/><use xlink:href="#3"/><use xlink:href="#4" y="2.171"/><use xlink:href="#5" y="4.342"/><use xlink:href="#6" y="6.513"/><use xlink:href="#7" y="8.684"/><use xlink:href="#8" y="10.855"/><use xlink:href="#9" y="13.026"/><use xlink:href="#10" y="15.197"/><use xlink:href="#11" y="17.368"/><text y="21.209" class="c">➜</text><text x="3.006" y="21.209" class="d">webserv</text><text x="11.022" y="21.209" class="e">git:(</text><text x="16.032" y="21.209" class="f">main</text><text x="20.04" y="21.209" class="e">)</text><text x="22.044" y="21.209" class="g">./we</text></svg><svg x="3895"><use xlink:href="#a"/><use xlink:href="#b" x="26.996" y="19.514"/><use xlink:href="#3"/><use xlink:href="#4" y="2.171"/><use xlink:href="#5" y="4.342"/><use xlink:href="#6" y="6.513"/><use xlink:href="#7" y="8.684"/><use xlink:href="#8" y="10.855"/><use xlink:href="#9" y="13.026"/><use xlink:href="#10" y="15.197"/><use xlink:href="#11" y="17.368"/><text y="21.209" class="c">➜</text><text x="3.006" y="21.209" class="d">webserv</text><text x="11.022" y="21.209" class="e">git:(</text><text x="16.032" y="21.209" class="f">main</text><text x="20.04" y="21.209" class="e">)</text><text x="22.044" y="21.209" class="g">./web</text></svg><svg x="3990"><use xlink:href="#a"/><use xlink:href="#b" x="27.996" y="19.514"/><use xlink:href="#3"/><use xlink:href="#4" y="2.171"/><use xlink:href="#5" y="4.342"/><use xlink:href="#6" y="6.513"/><use xlink:href="#7" y="8.684"/><use xlink:href="#8" y="10.855"/><use xlink:href="#9" y="13.026"/><use xlink:href="#10" y="15.197"/><use xlink:href="#11" y="17.368"/><text y="21.209" class="c">➜</text><text x="3.006" y="21.209" class="d">webserv</text><text x="11.022" y="21.209" class="e">git:(</text><text x="16.032" y="21.209" class="f">main</text><text x="20.04" y="21.209" class="e">)</text><text x="22.044" y="21.209" class="g">./webs</text></svg><svg x="4085"><use xlink:href="#a"/><use xlink:href="#b" x="28.996" y="19.514"/><use xlink:href="#3"/><use xlink:href="#4" y="2.171"/><use xlink:href="#5" y="4.342"/><use xlink:href="#6" y="6.513"/><use xlink:href="#7" y="8.684"/><use xlink:href="#8" y="10.855"/><use xlink:href="#9" y="13.026"/><use xlink:href="#10" y="15.197"/><use xlink:href="#11" y="17.368"/><text y="21.209" class="c">➜</text><text x="3.006" y="21.209" class="d">webserv</text><text x="11.022" y="21.209" class="e">git:(</text><text x="16.032" y="21.209" class="f">main</text><text x="20.04" y="21.209" class="e">)</text><text x="22.044" y="21.209" class="g">./webse</text></svg><svg x="4180"><use xlink:href="#a"/><use xlink:href="#b" x="31.996" y="19.514"/><use xlink:href="#3"/><use xlink:href="#4" y="2.171"/><use xlink:href="#5" y="4.342"/><use xlink:href="#6" y="6.513"/><use xlink:href="#7" y="8.684"/><use xlink:href="#8" y="10.855"/><use xlink:href="#9" y="13.026"/><use xlink:href="#10" y="15.197"/><use xlink:href="#11" y="17.368"/><text y="21.209" class="c">➜</text><text x="3.006" y="21.209" class="d">webserv</text><text x="11.022" y="21.209" class="e">git:(</text><text x="16.032" y="21.209" class="f">main</text><text x="20.04" y="21.209" class="e">)</text><text x="22.044" y="21.209" class="g">./webserv</text></svg><svg x="4275"><use xlink:href="#a"/><use xlink:href="#b" x="32.996" y="19.514"/><use xlink:href="#3"/><use xlink:href="#4" y="2.171"/><use xlink:href="#5" y="4.342"/><use xlink:href="#6" y="6.513"/><use xlink:href="#7" y="8.684"/><use xlink:href="#8" y="10.855"/><use xlink:href="#9" y="13.026"/><use xlink:href="#10" y="15.197"/><use xlink:href="#11" y="17.368"/><text y="21.209" class="c">➜</text><text x="3.006" y="21.209" class="d">webserv</text><text x="11.022" y="21.209" class="e">git:(</text><text x="16.032" y="21.209" class="f">main</text><text x="20.04" y="21.209" class="e">)</text><text x="22.044" y="21.209" class="g">./webserv</text><text x="32.064" y="21.209" class="g">c</text></svg><svg x="4370"><use xlink:href="#a"/><use xlink:href="#b" x="33.996" y="19.514"/><use xlink:href="#3"/><use xlink:href="#4" y="2.171"/><use xlink:href="#5" y="4.342"/><use xlink:href="#6" y="6.513"/><use xlink:href="#7" y="8.684"/><use xlink:href="#8" y="10.855"/><use xlink:href="#9" y="13.026"/><use xlink:href="#10" y="15.197"/><use xlink:href="#11" y="17.368"/><text y="21.209" class="c">➜</text><text x="3.006" y="21.209" class="d">webserv</text><text x="11.022" y="21.209" class="e">git:(</text><text x="16.032" y="21.209" class="f">main</text><text x="20.04" y="21.209" class="e">)</text><text x="22.044" y="21.209" class="g">./webserv</text><text x="32.064" y="21.209" class="g">co</text></svg><svg x="4465"><use xlink:href="#a"/><use xlink:href="#b" x="34.996" y="19.514"/><use xlink:href="#3"/><use xlink:href="#4" y="2.171"/><use xlink:href="#5" y="4.342"/><use xlink:href="#6" y="6.513"/><use xlink:href="#7" y="8.684"/><use xlink:href="#8" y="10.855"/><use xlink:href="#9" y="13.026"/><use xlink:href="#10" y="15.197"/><use xlink:href="#11" y="17.368"/><text y="21.209" class="c">➜</text><text x="3.006" y="21.209" class="d">webserv</text><text x="11.022" y="21.209" class="e">git:(</text><text x="16.032" y="21.209" class="f">main</text><text x="20.04" y="21.209" class="e">)</text><text x="22.044" y="21.209" class="g">./webserv</text><text x="32.064" y="21.209" class="g">con</text></svg><svg x="4560"><use xlink:href="#a"/><use xlink:href="#b" x="35.996" y="19.514"/><use xlink:href="#3"/><use xlink:href="#4" y="2.171"/><use xlink:href="#5" y="4.342"/><use xlink:href="#6" y="6.513"/><use xlink:href="#7" y="8.684"/><use xlink:href="#8" y="10.855"/><use xlink:href="#9" y="13.026"/><use xlink:href="#10" y="15.197"/><use xlink:href="#11" y="17.368"/><text y="21.209" class="c">➜</text><text x="3.006" y="21.209" class="d">webserv</text><text x="11.022" y="21.209" class="e">git:(</text><text x="16.032" y="21.209" class="f">main</text><text x="20.04" y="21.209" class="e">)</text><text x="22.044" y="21.209" class="g">./webserv</text><text x="32.064" y="21.209" class="g">conf</text></svg><svg x="4655"><use xlink:href="#a"/><use xlink:href="#b" x="36.996" y="19.514"/><use xlink:href="#3"/><use xlink:href="#4" y="2.171"/><use xlink:href="#5" y="4.342"/><use xlink:href="#6" y="6.513"/><use xlink:href="#7" y="8.684"/><use xlink:href="#8" y="10.855"/><use xlink:href="#9" y="13.026"/><use xlink:href="#10" y="15.197"/><use xlink:href="#11" y="17.368"/><text y="21.209" class="c">➜</text><text x="3.006" y="21.209" class="d">webserv</text><text x="11.022" y="21.209" class="e">git:(</text><text x="16.032" y="21.209" class="f">main</text><text x="20.04" y="21.209" class="e">)</text><text x="22.044" y="21.209" class="g">./webserv</text><text x="32.064" y="21.209" class="g">confi</text></svg><svg x="4750"><use xlink:href="#a"/><use xlink:href="#b" x="38.996" y="19.514"/><use xlink:href="#3"/><use xlink:href="#4" y="2.171"/><use xlink:href="#5" y="4.342"/><use xlink:href="#6" y="6.513"/><use xlink:href="#7" y="8.684"/><use xlink:href="#8" y="10.855"/><use xlink:href="#9" y="13.026"/><use xlink:href="#10" y="15.197"/><use xlink:href="#11" y="17.368"/><text y="21.209" class="c">➜</text><text x="3.006" y="21.209" class="d">webserv</text><text x="11.022" y="21.209" class="e">git:(</text><text x="16.032" y="21.209" class="f">main</text><text x="20.04" y="21.209" class="e">)</text><text x="22.044" y="21.209" class="g">./webserv</text><text x="32.064" y="21.209" class="g">config</text><text x="38.076" y="21.209" class="p">/</text></svg><svg x="4845"><use xlink:href="#a"/><use xlink:href="#b" x="39.996" y="19.514"/><use xlink:href="#3"/><use xlink:href="#4" y="2.171"/><use xlink:href="#5" y="4.342"/><use xlink:href="#6" y="6.513"/><use xlink:href="#7" y="8.684"/><use xlink:href="#8" y="10.855"/><use xlink:href="#9" y="13.026"/><use xlink:href="#10" y="15.197"/><use xlink:href="#11" y="17.368"/><text y="21.209" class="c">➜</text><text x="3.006" y="21.209" class="d">webserv</text><text x="11.022" y="21.209" class="e">git:(</text><text x="16.032" y="21.209" class="f">main</text><text x="20.04" y="21.209" class="e">)</text><text x="22.044" y="21.209" class="g">./webserv</text><text x="32.064" y="21.209" class="g">config/e</text></svg><svg x="4940"><use xlink:href="#a"/><use xlink:href="#b" x="40.996" y="19.514"/><use xlink:href="#3"/><use xlink:href="#4" y="2.171"/><use xlink:href="#5" y="4.342"/><use xlink:href="#6" y="6.513"/><use xlink:href="#7" y="8.684"/><use xlink:href="#8" y="10.855"/><use xlink:href="#9" y="13.026"/><use xlink:href="#10" y="15.197"/><use xlink:href="#11" y="17.368"/><text y="21.209" class="c">➜</text><text x="3.006" y="21.209" class="d">webserv</text><text x="11.022" y="21.209" class="e">git:(</text><text x="16.032" y="21.209" class="f">main</text><text x="20.04" y="21.209" class="e">)</text><text x="22.044" y="21.209" class="g">./webserv</text><text x="32.064" y="21.209" class="g">config/ex</text></svg><svg x="5035"><use xlink:href="#a"/><use xlink:href="#b" x="41.996" y="19.514"/><use xlink:href="#3"/><use xlink:href="#4" y="2.171"/><use xlink:href="#5" y="4.342"/><use xlink:href="#6" y="6.513"/><use xlink:href="#7" y="8.684"/><use xlink:href="#8" y="10.855"/><use xlink:href="#9" y="13.026"/><use xlink:href="#10" y="15.197"/><use xlink:href="#11" y="17.368"/><text y="21.209" class="c">➜</text><text x="3.006" y="21.209" class="d">webserv</text><text x="11.022" y="21.209" class="e">git:(</text><text x="16.032" y="21.209" class="f">main</text><text x="20.04" y="21.209" class="e">)</text><text x="22.044" y="21.209" class="g">./webserv</text><text x="32.064" y="21.209" class="g">config/exa</text></svg><svg x="5130"><use xlink:href="#a"/><use xlink:href="#b" x="42.996" y="19.514"/><use xlink:href="#3"/><use xlink:href="#4" y="2.171"/><use xlink:href="#5" y="4.342"/><use xlink:href="#6" y="6.513"/><use xlink:href="#7" y="8.684"/><use xlink:href="#8" y="10.855"/><use xlink:href="#9" y="13.026"/><use xlink:href="#10" y="15.197"/><use xlink:href="#11" y="17.368"/><text y="21.209" class="c">➜</text><text x="3.006" y="21.209" class="d">webserv</text><text x="11.022" y="21.209" class="e">git:(</text><text x="16.032" y="21.209" class="f">main</text><text x="20.04" y="21.209" class="e">)</text><text x="22.044" y="21.209" class="g">./webserv</text><text x="32.064" y="21.209" class="g">config/exam</text></svg><svg x="5225"><use xlink:href="#a"/><use xlink:href="#b" x="43.996" y="19.514"/><use xlink:href="#3"/><use xlink:href="#4" y="2.171"/><use xlink:href="#5" y="4.342"/><use xlink:href="#6" y="6.513"/><use xlink:href="#7" y="8.684"/><use xlink:href="#8" y="10.855"/><use xlink:href="#9" y="13.026"/><use xlink:href="#10" y="15.197"/><use xlink:href="#11" y="17.368"/><text y="21.209" class="c">➜</text><text x="3.006" y="21.209" class="d">webserv</text><text x="11.022" y="21.209" class="e">git:(</text><text x="16.032" y="21.209" class="f">main</text><text x="20.04" y="21.209" class="e">)</text><text x="22.044" y="21.209" class="g">./webserv</text><text x="32.064" y="21.209" class="g">config/examp</text></svg><svg x="5320"><use xlink:href="#a"/><use xlink:href="#b" x="44.996" y="19.514"/><use xlink:href="#3"/><use xlink:href="#4" y="2.171"/><use xlink:href="#5" y="4.342"/><use xlink:href="#6" y="6.513"/><use xlink:href="#7" y="8.684"/><use xlink:href="#8" y="10.855"/><use xlink:href="#9" y="13.026"/><use xlink:href="#10" y="15.197"/><use xlink:href="#11" y="17.368"/><text y="21.209" class="c">➜</text><text x="3.006" y="21.209" class="d">webserv</text><text x="11.022" y="21.209" class="e">git:(</text><text x="16.032" y="21.209" class="f">main</text><text x="20.04" y="21.209" class="e">)</text><text x="22.044" y="21.209" class="g">./webserv</text><text x="32.064" y="21.209" class="g">config/exampl</text></svg><svg x="5415"><use xlink:href="#a"/><use xlink:href="#b" x="51.996" y="19.514"/><use xlink:href="#3"/><use xlink:href="#4" y="2.171"/><use xlink:href="#5" y="4.342"/><use xlink:href="#6" y="6.513"/><use xlink:href="#7" y="8.684"/><use xlink:href="#8" y="10.855"/><use xlink:href="#9" y="13.026"/><use xlink:href="#10" y="15.197"/><use xlink:href="#11" y="17.368"/><use xlink:href="#12" y="19.539"/></svg><svg x="5510"><use xlink:href="#a"/><use xlink:href="#b" x="50.996" y="19.514"/><use xlink:href="#3"/><use xlink:href="#4" y="2.171"/><use xlink:href="#5" y="4.342"/><use xlink:href="#6" y="6.513"/><use xlink:href="#7" y="8.684"/><use xlink:href="#8" y="10.855"/><use xlink:href="#9" y="13.026"/><use xlink:href="#10" y="15.197"/><use xlink:href="#11" y="17.368"/><use xlink:href="#12" y="19.539"/></svg><svg x="5605"><use xlink:href="#a"/><use xlink:href="#b" x="-.004" y="21.685"/><use xlink:href="#3"/><use xlink:href="#4" y="2.171"/><use xlink:href="#5" y="4.342"/><use xlink:href="#6" y="6.513"/><use xlink:href="#7" y="8.684"/><use xlink:href="#8" y="10.855"/><use xlink:href="#9" y="13.026"/><use xlink:href="#10" y="15.197"/><use xlink:href="#11" y="17.368"/><use xlink:href="#12" y="19.539"/></svg><svg x="5700"><use xlink:href="#a"/><use xlink:href="#b" x="-.004" y="21.685"/><use xlink:href="#3"/><use xlink:href="#4" y="2.171"/><use xlink:href="#5" y="4.342"/><use xlink:href="#6" y="6.513"/><use xlink:href="#7" y="8.684"/><use xlink:href="#8" y="10.855"/><use xlink:href="#9" y="13.026"/><use xlink:href="#10" y="15.197"/><use xlink:href="#11" y="17.368"/><use xlink:href="#12" y="19.539"/></svg><svg x="5795"><use xlink:href="#a"/><use xlink:href="#b" x="-.004" y="23.856"/><use xlink:href="#3"/><use xlink:href="#4" y="2.171"/><use xlink:href="#5" y="4.342"/><use xlink:href="#6" y="6.513"/><use xlink:href="#7" y="8.684"/><use xlink:href="#8" y="10.855"/><use xlink:href="#9" y="13.026"/><use xlink:href="#10" y="15.197"/><use xlink:href="#11" y="17.368"/><use xlink:href="#12" y="19.539"/><use xlink:href="#13" y="21.71"/></svg><svg x="5890"><use xlink:href="#a"/><use xlink:href="#b" x="-.004" y="26.027"/><use xlink:href="#3"/><use xlink:href="#4" y="2.171"/><use xlink:href="#5" y="4.342"/><use xlink:href="#6" y="6.513"/><use xlink:href="#7" y="8.684"/><use xlink:href="#8" y="10.855"/><use xlink:href="#9" y="13.026"/><use xlink:href="#10" y="15.197"/><use xlink:href="#11" y="17.368"/><use xlink:href="#12" y="19.539"/><use xlink:href="#13" y="21.71"/><use xlink:href="#14" y="23.881"/></svg><svg x="5985"><use xlink:href="#a"/><use xlink:href="#b" x="-.004" y="28.198"/><use xlink:href="#3"/><use xlink:href="#4" y="2.171"/><use xlink:href="#5" y="4.342"/><use xlink:href="#6" y="6.513"/><use xlink:href="#7" y="8.684"/><use xlink:href="#8" y="10.855"/><use xlink:href="#9" y="13.026"/><use xlink:href="#10" y="15.197"/><use xlink:href="#11" y="17.368"/><use xlink:href="#12" y="19.539"/><use xlink:href="#13" y="21.71"/><use xlink:href="#14" y="23.881"/><use xlink:href="#15" y="26.052"/></svg><svg x="6080"><use xlink:href="#a"/><use xlink:href="#b" x="-.004" y="32.54"/><use xlink:href="#3"/><use xlink:href="#4" y="2.171"/><use xlink:href="#5" y="4.342"/><use xlink:href="#6" y="6.513"/><use xlink:href="#7" y="8.684"/><use xlink:href="#8" y="10.855"/><use xlink:href="#9" y="13.026"/><use xlink:href="#10" y="15.197"/><use xlink:href="#11" y="17.368"/><use xlink:href="#12" y="19.539"/><use xlink:href="#13" y="21.71"/><use xlink:href="#14" y="23.881"/><use xlink:href="#15" y="26.052"/><use xlink:href="#16" y="28.223"/><use xlink:href="#17" y="30.394"/></svg><svg x="6175"><use xlink:href="#a"/><use xlink:href="#b" x="-.004" y="34.711"/><use xlink:href="#3"/><use xlink:href="#4" y="2.171"/><use xlink:href="#5" y="4.342"/><use xlink:href="#6" y="6.513"/><use xlink:href="#7" y="8.684"/><use xlink:href="#8" y="10.855"/><use xlink:href="#9" y="13.026"/><use xlink:href="#10" y="15.197"/><use xlink:href="#11" y="17.368"/><use xlink:href="#12" y="19.539"/><use xlink:href="#13" y="21.71"/><use xlink:href="#14" y="23.881"/><use xlink:href="#15" y="26.052"/><use xlink:href="#16" y="28.223"/><use xlink:href="#17" y="30.394"/><use xlink:href="#18" y="32.565"/></svg><svg x="6270"><use xlink:href="#a"/><use xlink:href="#b" x="-.004" y="36.882"/><use xlink:href="#3"/><use xlink:href="#4" y="2.171"/><use xlink:href="#5" y="4.342"/><use xlink:href="#6" y="6.513"/><use xlink:href="#7" y="8.684"/><use xlink:href="#8" y="10.855"/><use xlink:href="#9" y="13.026"/><use xlink:href="#10" y="15.197"/><use xlink:href="#11" y="17.368"/><use xlink:href="#12" y="19.539"/><use xlink:href="#13" y="21.71"/><use xlink:href="#14" y="23.881"/><use xlink:href="#15" y="26.052"/><use xlink:href="#16" y="28.223"/><use xlink:href="#17" y="30.394"/><use xlink:href="#18" y="32.565"/><use xlink:href="#19" y="34.736"/></svg><svg x="6365"><use xlink:href="#a"/><use xlink:href="#b" x="-.004" y="36.882"/><use xlink:href="#3"/><use xlink:href="#4" y="2.171"/><use xlink:href="#5" y="4.342"/><use xlink:href="#6" y="6.513"/><use xlink:href="#7" y="8.684"/><use xlink:href="#8" y="10.855"/><use xlink:href="#9" y="13.026"/><use xlink:href="#10" y="15.197"/><use xlink:href="#11" y="17.368"/><use xlink:href="#12" y="19.539"/><use xlink:href="#13" y="21.71"/><use xlink:href="#14" y="23.881"/><use xlink:href="#15" y="26.052"/><use xlink:href="#16" y="28.223"/><use xlink:href="#17" y="30.394"/><use xlink:href="#18" y="32.565"/><use xlink:href="#19" y="34.736"/></svg><svg x="6460"><use xlink:href="#a"/><use xlink:href="#b" x="-.004" y="36.882"/><use xlink:href="#3"/><use xlink:href="#4" y="2.171"/><use xlink:href="#5" y="4.342"/><use xlink:href="#6" y="6.513"/><use xlink:href="#7" y="8.684"/><use xlink:href="#8" y="10.855"/><use xlink:href="#9" y="13.026"/><use xlink:href="#10" y="15.197"/><use xlink:href="#11" y="17.368"/><use xlink:href="#12" y="19.539"/><use xlink:href="#13" y="21.71"/><use xlink:href="#14" y="23.881"/><use xlink:href="#15" y="26.052"/><use xlink:href="#16" y="28.223"/><use xlink:href="#17" y="30.394"/><use xlink:href="#18" y="32.565"/><use xlink:href="#19" y="34.736"/></svg><svg x="6555"><use xlink:href="#a"/><use xlink:href="#b" x="-.004" y="36.882"/><use xlink:href="#3"/><use xlink:href="#4" y="2.171"/><use xlink:href="#5" y="4.342"/><use xlink:href="#6" y="6.513"/><use xlink:href="#7" y="8.684"/><use xlink:href="#8" y="10.855"/><use xlink:href="#9" y="13.026"/><use xlink:href="#10" y="15.197"/><use xlink:href="#11" y="17.368"/><use xlink:href="#12" y="19.539"/><use xlink:href="#13" y="21.71"/><use xlink:href="#14" y="23.881"/><use xlink:href="#15" y="26.052"/><use xlink:href="#16" y="28.223"/><use xlink:href="#17" y="30.394"/><use xlink:href="#18" y="32.565"/><use xlink:href="#19" y="34.736"/></svg><svg x="6650"><use xlink:href="#a"/><use xlink:href="#b" x="21.996" y="36.882"/><use xlink:href="#3"/><use xlink:href="#4" y="2.171"/><use xlink:href="#5" y="4.342"/><use xlink:href="#6" y="6.513"/><use xlink:href="#7" y="8.684"/><use xlink:href="#8" y="10.855"/><use xlink:href="#9" y="13.026"/><use xlink:href="#10" y="15.197"/><use xlink:href="#11" y="17.368"/><use xlink:href="#12" y="19.539"/><use xlink:href="#13" y="21.71"/><use xlink:href="#14" y="23.881"/><use xlink:href="#15" y="26.052"/><use xlink:href="#16" y="28.223"/><use xlink:href="#17" y="30.394"/><use xlink:href="#18" y="32.565"/><use xlink:href="#19" y="34.736"/><use xlink:href="#20" y="36.907"/></svg><svg x="6745"><use xlink:href="#a"/><use xlink:href="#b" x="21.996" y="36.882"/><use xlink:href="#3"/><use xlink:href="#4" y="2.171"/><use xlink:href="#5" y="4.342"/><use xlink:href="#6" y="6.513"/><use xlink:href="#7" y="8.684"/><use xlink:href="#8" y="10.855"/><use xlink:href="#9" y="13.026"/><use xlink:href="#10" y="15.197"/><use xlink:href="#11" y="17.368"/><use xlink:href="#12" y="19.539"/><use xlink:href="#13" y="21.71"/><use xlink:href="#14" y="23.881"/><use xlink:href="#15" y="26.052"/><use xlink:href="#16" y="28.223"/><use xlink:href="#17" y="30.394"/><use xlink:href="#18" y="32.565"/><use xlink:href="#19" y="34.736"/><use xlink:href="#20" y="36.907"/></svg><svg x="6840"><use xlink:href="#a"/><use xlink:href="#b" x="21.996" y="36.882"/><use xlink:href="#3"/><use xlink:href="#4" y="2.171"/><use xlink:href="#5" y="4.342"/><use xlink:href="#6" y="6.513"/><use xlink:href="#7" y="8.684"/><use xlink:href="#8" y="10.855"/><use xlink:href="#9" y="13.026"/><use xlink:href="#10" y="15.197"/><use xlink:href="#11" y="17.368"/><use xlink:href="#12" y="19.539"/><use xlink:href="#13" y="21.71"/><use xlink:href="#14" y="23.881"/><use xlink:href="#15" y="26.052"/><use xlink:href="#16" y="28.223"/><use xlink:href="#17" y="30.394"/><use xlink:href="#18" y="32.565"/><use xlink:href="#19" y="34.736"/><use xlink:href="#20" y="36.907"/></svg><svg x="6935"><use xlink:href="#a"/><use xlink:href="#b" x="-.004" y="39.053"/><use xlink:href="#3"/><use xlink:href="#4" y="2.171"/><use xlink:href="#5" y="4.342"/><use xlink:href="#6" y="6.513"/><use xlink:href="#7" y="8.684"/><use xlink:href="#8" y="10.855"/><use xlink:href="#9" y="13.026"/><use xlink:href="#10" y="15.197"/><use xlink:href="#11" y="17.368"/><use xlink:href="#12" y="19.539"/><use xlink:href="#13" y="21.71"/><use xlink:href="#14" y="23.881"/><use xlink:href="#15" y="26.052"/><use xlink:href="#16" y="28.223"/><use xlink:href="#17" y="30.394"/><use xlink:href="#18" y="32.565"/><use xlink:href="#19" y="34.736"/><use xlink:href="#20" y="36.907"/></svg></svg></g></g></svg></svg>